<?xml version="1.0" encoding="utf-8"?>
<!-- Generator: Adobe Illustrator 23.0.6, SVG Export Plug-In . SVG Version: 6.00 Build 0)  -->
<svg version="1.1" id="Capa_1" xmlns="http://www.w3.org/2000/svg" xmlns:xlink="http://www.w3.org/1999/xlink" x="0px" y="0px"
	 viewBox="0 0 32 32" style="enable-background:new 0 0 32 32;" xml:space="preserve">
<path d="M17.5,28l7.9-9.7c0.7-0.9,0.6-2.1-0.3-2.8c-0.9-0.7-2.1-0.6-2.8,0.3L18,21.1V5.3c0-1.1-0.9-2-2-2s-2,0.9-2,2v15.8l-4.3-5.3
	c-0.7-0.9-2-1-2.8-0.3c-0.5,0.4-0.7,1-0.7,1.6c0,0.4,0.1,0.9,0.5,1.3l7.9,9.7c0.4,0.5,0.9,0.7,1.5,0.7S17.2,28.4,17.5,28z"/>
</svg>
